#!OML:ASF I:\golf\golf\golf 2\Subject 1\2002-09-07\Subject1.ASF
:FULLY-SPECIFIED
:DEGREES
397
root -6.13382 18.0234 -2.87277 -163.78 12.9279 -174.512
lowerback -2.72642 8.60351 8.00898
upperback -5.71174 12.6472 4.34244
thorax -3.84396 6.49454 0.11402
lowerneck -16.3507 -8.72989 0.51247
upperneck 10.0508 -11.703 -0.97903
head 5.58051 -5.75286 -1.47721
rclavicle -1.18774e-014 -1.11319e-014
rhumerus 68.6316 32.4956 -70.4343
rradius 38.5045
rwrist -12.918
rhand -32.3247 20.9912
rfingers 7.12502
rthumb -5.56221 -8.91577
lclavicle -1.18774e-014 -1.11319e-014
lhumerus 51.1644 -8.17458 79.7863
lradius 37.6499
lwrist 24.821
lhand -19.2177 16.1401
lfingers 7.12502
lthumb -172.905 -133.999
rfemur 4.14321 -8.80195 19.3501
rtibia 26.066
rfoot 10.8601 -26.6595
rtoes 16.3779
lfemur -28.584 -12.679 -11.3228
ltibia 19.9923
lfoot 42.8111 -29.1689
ltoes 41.2659
398
root -6.12638 18.0274 -2.85202 -163.805 13.067 -174.546
lowerback -2.54338 8.68959 7.93473
upperback -5.77525 12.7628 4.18172
thorax -3.98301 6.53603 -0.0448863
lowerneck -16.0237 -8.74337 0.667277
upperneck 9.76123 -11.7565 -0.925328
head 5.42987 -5.77596 -1.46222
rclavicle 1.00138e-013 6.83819e-014
rhumerus 67.2838 32.2501 -71.4662
rradius 37.9635
rwrist -12.7916
rhand -31.5167 21.5999
rfingers 7.12502
rthumb -4.78206 -8.32616
lclavicle 1.00138e-013 6.83819e-014
lhumerus 50.314 -8.67323 80.7232
lradius 37.36
lwrist 24.6199
lhand -18.4025 16.4915
lfingers 7.12502
lthumb -172.118 -133.675
rfemur 4.07488 -8.86012 19.3108
rtibia 26.1127
rfoot 11.083 -26.4825
rtoes 15.4277
lfemur -28.6122 -12.7404 -11.2721
ltibia 19.9831
lfoot 42.2385 -29.7948
ltoes 40.6522
399
root -6.11283 18.0334 -2.83418 -163.592 13.4159 -174.441
lowerback -2.63112 8.84454 7.81981
upperback -5.8347 12.9546 4.07283
thorax -3.98534 6.63138 -0.0808015
lowerneck -15.8144 -8.74443 0.765048
upperneck 9.52888 -11.7818 -0.864093
head 5.32069 -5.78531 -1.44187
rclavicle -7.60848e-014 -2.38542e-014
rhumerus 65.9205 32.0599 -72.4899
rradius 37.6735
rwrist -12.9346
rhand -30.3641 21.5809
rfingers 7.12502
rthumb -3.66903 -8.36723
lclavicle -7.60848e-014 -2.38542e-014
lhumerus 49.5388 -9.07991 81.5739
lradius 37.0734
lwrist 24.4017
lhand -17.3777 17.0263
lfingers 7.12502
lthumb -171.129 -133.18
rfemur 3.77907 -8.67586 19.4003
rtibia 26.1243
rfoot 11.328 -26.3328
rtoes 14.7058
lfemur -28.7704 -12.5229 -11.1122
ltibia 19.9962
lfoot 41.906 -29.994
ltoes 40.1809
400
root -6.10366 18.0331 -2.81825 -163.528 13.743 -174.507
lowerback -2.7237 8.82257 7.56984
upperback -5.73276 12.8899 4.1097
thorax -3.88461 6.60937 0.106232
lowerneck -15.9265 -8.58647 0.624803
upperneck 9.51709 -11.5347 -0.896619
head 5.34407 -5.67072 -1.41497
rclavicle 1.36068e-013 1.49486e-013
rhumerus 64.8455 32.2782 -73.4193
rradius 37.2872
rwrist -13.0377
rhand -29.4209 21.8049
rfingers 7.12502
rthumb -2.75824 -8.15704
lclavicle 1.36068e-013 1.49486e-013
lhumerus 48.7811 -8.87484 82.5247
lradius 36.7202
lwrist 24.2373
lhand -16.6103 17.3236
lfingers 7.12502
lthumb -170.389 -132.916
rfemur 3.63051 -8.58702 19.2646
rtibia 26.1259
rfoot 11.5384 -26.1632
rtoes 14.3609
lfemur -28.8059 -12.5304 -11.1247
ltibia 20.0028
lfoot 41.4911 -30.0564
ltoes 39.9354
401
root -6.09627 18.0333 -2.80185 -163.58 13.9566 -174.674
lowerback -2.65578 8.72873 7.26599
upperback -5.69023 12.7506 4.11935
thorax -3.94243 6.54337 0.254931
lowerneck -15.9865 -8.43028 0.523819
upperneck 9.65625 -11.3175 -0.817067
head 5.41103 -5.55995 -1.36479
rclavicle 6.48535e-014 1.24042e-013
rhumerus 63.6927 32.5047 -74.5352
rradius 36.7007
rwrist -12.9371
rhand -29.4288 21.8465
rfingers 7.12502
rthumb -2.7658 -8.11532
lclavicle 6.48535e-014 1.24042e-013
lhumerus 47.8585 -8.72967 83.2737
lradius 36.455
lwrist 24.3491
lhand -16.1956 17.4014
lfingers 7.12502
lthumb -169.989 -132.857
rfemur 3.59362 -8.54606 19.0691
rtibia 26.1183
rfoot 11.5883 -26.0902
rtoes 13.9338
lfemur -28.7962 -12.6793 -11.2236
ltibia 20.0112
lfoot 40.8416 -30.4341
ltoes 39.6603
402
root -6.08814 18.0374 -2.78492 -163.542 14.0648 -174.635
lowerback -2.54767 8.66961 7.20577
upperback -5.75406 12.6842 4.085
thorax -4.07605 6.50464 0.222512
lowerneck -16.0165 -8.19826 0.560062
upperneck 9.90219 -11.0299 -0.750188
head 5.4991 -5.41033 -1.33405
rclavicle -7.31279e-014 3.33958e-014
rhumerus 62.3987 32.5642 -75.6972
rradius 36.1637
rwrist -12.7794
rhand -29.428 21.41
rfingers 7.12502
rthumb -2.76508 -8.5518
lclavicle -7.31279e-014 3.33958e-014
lhumerus 46.9383 -8.88926 83.8374
lradius 36.2388
lwrist 24.8906
lhand -16.073 17.6025
lfingers 7.12502
lthumb -169.87 -132.661
rfemur 3.51104 -8.43479 19.1689
rtibia 26.085
rfoot 11.5854 -26.194
rtoes 13.6256
lfemur -28.8532 -12.6947 -11.1181
ltibia 20.0319
lfoot 40.1777 -31.0899
ltoes 39.0232
403
root -6.08112 18.0429 -2.76907 -163.501 14.1192 -174.539
lowerback -2.52087 8.63165 7.27075
upperback -5.72158 12.6237 4.07403
thorax -4.04261 6.46945 0.177301
lowerneck -16.0642 -8.0969 0.691275
upperneck 9.80676 -10.913 -0.798232
head 5.46782 -5.35316 -1.3567
rclavicle -7.19104e-014 -3.18055e-015
rhumerus 61.2633 32.6073 -76.6224
rradius 35.8335
rwrist -12.7865
rhand -28.9939 20.7185
rfingers 7.12502
rthumb -2.34582 -9.24833
lclavicle -7.19104e-014 -3.18055e-015
lhumerus 46.1636 -9.03927 84.3462
lradius 36.1047
lwrist 25.5789
lhand -15.9017 18.0353
lfingers 7.12502
lthumb -169.705 -132.237
rfemur 3.44863 -8.34528 19.3343
rtibia 26.0246
rfoot 11.497 -26.4236
rtoes 13.8937
lfemur -28.9181 -12.7192 -10.9554
ltibia 20.0761
lfoot 39.3793 -32.0377
ltoes 37.794
404
root -6.07362 18.0468 -2.75519 -163.519 14.2156 -174.514
lowerback -2.56562 8.62684 7.26773
upperback -5.58126 12.5798 4.08532
thorax -3.87168 6.44786 0.21335
lowerneck -16.2459 -8.00271 0.681863
upperneck 9.77004 -10.774 -0.863046
head 5.48373 -5.28952 -1.36964
rclavicle -2.09966e-015 -2.70347e-014
rhumerus 60.3028 32.6233 -77.3518
rradius 35.5426
rwrist -12.9129
rhand -28.8474 19.8348
rfingers 7.12502
rthumb -2.20435 -10.1336
lclavicle -2.09966e-015 -2.70347e-014
lhumerus 45.4372 -9.11468 84.9463
lradius 36.0237
lwrist 26.0526
lhand -15.689 18.5191
lfingers 7.12502
lthumb -169.5 -131.763
rfemur 3.45524 -8.28222 19.385
rtibia 25.9578
rfoot 10.9944 -26.7933
rtoes 15.2259
lfemur -28.9425 -12.7519 -10.9007
ltibia 20.1472
lfoot 38.6973 -32.8819
ltoes 36.6626
405
root -6.06589 18.0474 -2.74093 -163.535 14.3258 -174.474
lowerback -2.56074 8.6224 7.25868
upperback -5.47862 12.55 4.09673
thorax -3.76958 6.43221 0.239413
lowerneck -16.41 -7.8825 0.658389
upperneck 9.81525 -10.5976 -0.939949
head 5.52338 -5.20834 -1.38257
rclavicle -3.09048e-014 6.36111e-015
rhumerus 59.4652 32.6399 -77.8272
rradius 35.163
rwrist -13.1346
rhand -28.8821 19.295
rfingers 7.12502
rthumb -2.23782 -10.6731
lclavicle -3.09048e-014 6.36111e-015
lhumerus 44.757 -9.22837 85.5965
lradius 35.7279
lwrist 26.3413
lhand -15.7083 18.8638
lfingers 7.12502
lthumb -169.518 -131.417
rfemur 3.46398 -8.24585 19.4408
rtibia 25.9082
rfoot 9.96004 -27.142
rtoes 16.7639
lfemur -28.9459 -12.6401 -10.8947
ltibia 20.2105
lfoot 38.211 -33.7534
ltoes 36.2991
406
root -6.05926 18.0472 -2.7264 -163.572 14.4209 -174.538
lowerback -2.50753 8.5954 7.14627
upperback -5.42767 12.4969 4.06894
thorax -3.76072 6.40334 0.263025
lowerneck -16.4296 -7.80611 0.884574
upperneck 9.62882 -10.5094 -1.17624
head 5.44306 -5.17768 -1.47531
rclavicle -1.52549e-013 -3.33958e-014
rhumerus 58.4943 32.6541 -78.4649
rradius 34.7823
rwrist -13.2753
rhand -28.4849 18.8421
rfingers 7.12502
rthumb -1.85423 -11.1296
lclavicle -1.52549e-013 -3.33958e-014
lhumerus 44.0623 -9.39318 86.1585
lradius 35.3272
lwrist 26.5464
lhand -15.6832 19.2123
lfingers 7.12502
lthumb -169.494 -131.07
rfemur 3.45191 -8.33625 19.3704
rtibia 25.8886
rfoot 9.0453 -27.1015
rtoes 16.7893
lfemur -28.9569 -12.5744 -10.9803
ltibia 20.2579
lfoot 37.4386 -34.8678
ltoes 35.5764
407
root -6.05378 18.0484 -2.71308 -163.628 14.5379 -174.7
lowerback -2.54589 8.57774 6.9617
upperback -5.32115 12.4326 4.02764
thorax -3.65253 6.37226 0.331768
lowerneck -16.7904 -7.60298 0.1846
upperneck 10.1303 -10.1599 -0.661588
head 5.72989 -4.98396 -1.21269
rclavicle -1.43928e-013 -1.04958e-013
rhumerus 57.3998 32.6002 -79.3815
rradius 34.4032
rwrist -13.1365
rhand -27.8743 18.3071
rfingers 7.12502
rthumb -1.26455 -11.6689
lclavicle -1.43928e-013 -1.04958e-013
lhumerus 43.3836 -9.49103 86.7451
lradius 35.0056
lwrist 26.7284
lhand -15.5169 19.6274
lfingers 7.12502
lthumb -169.334 -130.663
rfemur 3.41659 -8.48479 19.1628
rtibia 25.9075
rfoot 8.87771 -26.8444
rtoes 15.7298
lfemur -28.9681 -12.6352 -11.1231
ltibia 20.3021
lfoot 36.7534 -35.4803
ltoes 34.7878
